# 3ds Max Wavefront OBJ Exporter v0.97b - (c)2007 guruware
# File Created: 29.01.2018 12:34:21

mtllib scanner.mtl

#
# object scanner
#

v  1.4000 0.1000 -0.0000
v  0.7000 0.1000 1.2124
v  0.7000 -0.1000 1.2124
v  1.4000 -0.1000 -0.0000
v  1.0000 0.1000 -0.0000
v  0.5000 0.1000 0.8660
v  1.0000 -0.1000 -0.0000
v  0.5000 -0.1000 0.8660
v  -0.7000 0.1000 1.2124
v  -0.7000 -0.1000 1.2124
v  -0.5000 0.1000 0.8660
v  -0.5000 -0.1000 0.8660
v  -1.4000 0.1000 -0.0000
v  -1.4000 -0.1000 -0.0000
v  -1.0000 0.1000 -0.0000
v  -1.0000 -0.1000 -0.0000
v  -0.7000 0.1000 -1.2124
v  -0.7000 -0.1000 -1.2124
v  -0.5000 0.1000 -0.8660
v  -0.5000 -0.1000 -0.8660
v  0.7000 0.1000 -1.2124
v  0.7000 -0.1000 -1.2124
v  0.5000 0.1000 -0.8660
v  0.5000 -0.1000 -0.8660
# 24 vertices

vn 0.8660 0.0000 0.5000
vn 0.0000 1.0000 -0.0000
vn -0.8660 0.0000 -0.5000
vn 0.0000 -1.0000 -0.0000
vn 0.0000 0.0000 1.0000
vn 0.0000 0.0000 -1.0000
vn -0.8660 0.0000 0.5000
vn 0.8660 0.0000 -0.5000
# 8 vertex normals

vt 0.7694 0.0100 0.0000
vt 0.9900 0.0100 0.0000
vt 0.9900 0.0464 0.0000
vt 0.7694 0.0464 0.0000
vt 0.4467 0.2306 0.0000
vt 0.3557 0.0730 0.0000
vt 0.3921 0.0100 0.0000
vt 0.5195 0.2306 0.0000
vt 0.7064 0.1048 0.0000
vt 0.5488 0.1048 0.0000
vt 0.5488 0.0684 0.0000
vt 0.7064 0.0684 0.0000
vt 0.0100 0.7011 0.0000
vt 0.1374 0.4805 0.0000
vt 0.1738 0.5436 0.0000
vt 0.0828 0.7011 0.0000
vt 0.5488 0.1267 0.0000
vt 0.8035 0.1267 0.0000
vt 0.8035 0.1631 0.0000
vt 0.5488 0.1631 0.0000
vt 0.1738 0.0730 0.0000
vt 0.1374 0.0100 0.0000
vt 0.7308 0.2214 0.0000
vt 0.5489 0.2214 0.0000
vt 0.5489 0.1850 0.0000
vt 0.7308 0.1850 0.0000
vt 0.3921 0.4805 0.0000
vt 0.3557 0.5436 0.0000
vt 0.5488 0.0100 0.0000
vt 0.5488 0.0464 0.0000
vt 0.0828 0.2306 0.0000
vt 0.0100 0.2306 0.0000
vt 0.8640 0.1047 0.0000
vt 0.7064 0.1047 0.0000
vt 0.7064 0.0683 0.0000
vt 0.8640 0.0683 0.0000
vt 0.5195 0.7011 0.0000
vt 0.4467 0.7011 0.0000
vt 0.1738 0.3882 0.0000
vt 0.1374 0.4512 0.0000
vt 0.5489 0.1047 0.0000
vt 0.5489 0.0683 0.0000
vt 0.3921 0.9217 0.0000
vt 0.3557 0.8587 0.0000
vt 0.5489 0.1267 0.0000
vt 0.8036 0.1267 0.0000
vt 0.8036 0.1630 0.0000
vt 0.5489 0.1630 0.0000
vt 0.3557 0.3882 0.0000
vt 0.3921 0.4512 0.0000
vt 0.7307 0.2215 0.0000
vt 0.5488 0.2215 0.0000
vt 0.5488 0.1851 0.0000
vt 0.7307 0.1851 0.0000
vt 0.1374 0.9217 0.0000
vt 0.1738 0.8587 0.0000
vt 0.8639 0.1048 0.0000
vt 0.8639 0.0684 0.0000
# 58 texture coords

g scanner
usemtl body
f 1/1/1 2/2/1 3/3/1 
f 3/3/1 4/4/1 1/1/1 
f 5/5/2 6/6/2 2/7/2 
f 2/7/2 1/8/2 5/5/2 
f 7/9/3 8/10/3 6/11/3 
f 6/11/3 5/12/3 7/9/3 
f 4/13/4 3/14/4 8/15/4 
f 8/15/4 7/16/4 4/13/4 
f 2/17/5 9/18/5 10/19/5 
f 10/19/5 3/20/5 2/17/5 
f 6/6/2 11/21/2 9/22/2 
f 9/22/2 2/7/2 6/6/2 
f 8/23/6 12/24/6 11/25/6 
f 11/25/6 6/26/6 8/23/6 
f 3/14/4 10/27/4 12/28/4 
f 12/28/4 8/15/4 3/14/4 
f 9/29/7 13/1/7 14/4/7 
f 14/4/7 10/30/7 9/29/7 
f 11/21/2 15/31/2 13/32/2 
f 13/32/2 9/22/2 11/21/2 
f 12/33/8 16/34/8 15/35/8 
f 15/35/8 11/36/8 12/33/8 
f 10/27/4 14/37/4 16/38/4 
f 16/38/4 12/28/4 10/27/4 
f 13/1/3 17/2/3 18/3/3 
f 18/3/3 14/4/3 13/1/3 
f 15/31/2 19/39/2 17/40/2 
f 17/40/2 13/32/2 15/31/2 
f 16/34/1 20/41/1 19/42/1 
f 19/42/1 15/35/1 16/34/1 
f 14/37/4 18/43/4 20/44/4 
f 20/44/4 16/38/4 14/37/4 
f 17/45/6 21/46/6 22/47/6 
f 22/47/6 18/48/6 17/45/6 
f 19/39/2 23/49/2 21/50/2 
f 21/50/2 17/40/2 19/39/2 
f 20/51/5 24/52/5 23/53/5 
f 23/53/5 19/54/5 20/51/5 
f 18/43/4 22/55/4 24/56/4 
f 24/56/4 20/44/4 18/43/4 
f 21/29/8 1/1/8 4/4/8 
f 4/4/8 22/30/8 21/29/8 
f 23/49/2 5/5/2 1/8/2 
f 1/8/2 21/50/2 23/49/2 
f 24/57/7 7/9/7 5/12/7 
f 5/12/7 23/58/7 24/57/7 
f 22/55/4 4/13/4 7/16/4 
f 7/16/4 24/56/4 22/55/4 
# 48 faces

#
# object screen
#

v  -1.0000 0.0040 -0.0000
v  -0.5000 0.0040 0.8660
v  0.5000 0.0040 0.8660
v  -0.5000 0.0040 -0.8660
v  0.5000 0.0040 -0.8660
v  1.0000 0.0040 -0.0000
# 6 vertices

vn 0.0000 1.0000 -0.0000
# 1 vertex normals

vt 0.0122 0.5000 0.5000
vt 0.2561 0.0775 0.5000
vt 0.7439 0.0775 0.5000
vt 0.2561 0.9225 0.5000
vt 0.7439 0.9225 0.5000
vt 0.9878 0.5000 0.5000
# 6 texture coords

g screen
usemtl pane
f 25/59/9 26/60/9 27/61/9 
f 28/62/9 25/59/9 27/61/9 
f 29/63/9 28/62/9 27/61/9 
f 30/64/9 29/63/9 27/61/9 
# 4 faces

#
# object screen_back
#

v  -1.0000 -0.0100 -0.0000
v  -0.5000 -0.0100 0.8660
v  0.5000 -0.0100 0.8660
v  -0.5000 -0.0100 -0.8660
v  0.5000 -0.0100 -0.8660
v  1.0000 -0.0100 -0.0000
# 6 vertices

vn 0.0000 -1.0000 -0.0000
# 1 vertex normals

vt 0.0122 0.5000 0.5000
vt 0.2561 0.0775 0.5000
vt 0.7439 0.0775 0.5000
vt 0.2561 0.9225 0.5000
vt 0.7439 0.9225 0.5000
vt 0.9878 0.5000 0.5000
# 6 texture coords

g screen_back
usemtl pane
f 33/67/10 32/66/10 31/65/10 
f 33/67/10 31/65/10 34/68/10 
f 33/67/10 34/68/10 35/69/10 
f 33/67/10 35/69/10 36/70/10 
# 4 faces

