# 3ds Max Wavefront OBJ Exporter v0.97b - (c)2007 guruware
# File Created: 03.02.2016 10:40:59

mtllib golem_base.mtl

#
# object arm
#

v  -0.0469 0.0625 0.0625
v  0.0469 0.0625 0.0625
v  0.0469 0.0625 -0.0625
v  -0.0469 0.0625 -0.0625
v  -0.0469 -0.3125 -0.0625
v  -0.0469 -0.3125 0.0625
v  0.0469 -0.3125 -0.0625
v  0.0469 -0.3125 0.0625
# 8 vertices

vn 0.0000 1.0000 -0.0000
vn -1.0000 0.0000 -0.0000
vn 0.0000 0.0000 -1.0000
vn 1.0000 0.0000 -0.0000
vn 0.0000 0.0000 1.0000
vn 0.0000 -1.0000 -0.0000
# 6 vertex normals

vt 1.0000 0.5156 0.0000
vt 1.0000 0.6094 0.0000
vt 0.8594 0.6094 0.0000
vt 0.8594 0.5156 0.0000
vt 1.0000 1.0000 0.0000
vt 0.8750 1.0000 0.0000
vt 0.8750 0.6250 0.0000
vt 1.0000 0.6250 0.0000
vt 0.8594 1.0000 0.0000
vt 0.7656 1.0000 0.0000
vt 0.7656 0.6250 0.0000
vt 0.8594 0.6250 0.0000
# 12 texture coords

g arm
usemtl Material__25
f 1/1/1 2/2/1 3/3/1 
f 3/3/1 4/4/1 1/1/1 
f 1/5/2 4/6/2 5/7/2 
f 5/7/2 6/8/2 1/5/2 
f 4/9/3 3/10/3 7/11/3 
f 7/11/3 5/12/3 4/9/3 
f 3/5/4 2/6/4 8/7/4 
f 8/7/4 7/8/4 3/5/4 
f 2/9/5 1/10/5 6/11/5 
f 6/11/5 8/12/5 2/9/5 
f 6/4/6 7/2/6 8/3/6 
f 6/4/6 5/1/6 7/2/6 
# 12 faces

#
# object chest
#

v  -0.1563 0.0000 0.1250
v  -0.1563 0.0000 -0.1250
v  0.1563 0.0000 -0.1250
v  0.1563 0.0000 0.1250
v  -0.1563 0.2500 0.1250
v  0.1563 0.2500 0.1250
v  0.1563 0.2500 -0.1250
v  -0.1563 0.2500 -0.1250
# 8 vertices

vn 0.0000 -1.0000 -0.0000
vn 0.0000 1.0000 -0.0000
vn 0.0000 0.0000 1.0000
vn 1.0000 0.0000 -0.0000
vn 0.0000 0.0000 -1.0000
vn -1.0000 0.0000 -0.0000
# 6 vertex normals

vt 0.3281 0.7344 0.0000
vt 0.3281 0.8594 0.0000
vt 0.1719 0.8594 0.0000
vt 0.1719 0.7344 0.0000
vt 0.1563 0.8594 0.0000
vt 0.0000 0.8594 0.0000
vt 0.0000 0.7344 0.0000
vt 0.1563 0.7344 0.0000
vt 0.1719 0.8750 0.0000
vt 0.3281 0.8750 0.0000
vt 0.3281 1.0000 0.0000
vt 0.1719 1.0000 0.0000
vt 0.3438 0.8750 0.0000
vt 0.4688 0.8750 0.0000
vt 0.4688 1.0000 0.0000
vt 0.3438 1.0000 0.0000
vt 0.0000 0.8750 0.0000
vt 0.1563 0.8750 0.0000
vt 0.1563 1.0000 0.0000
vt 0.0000 1.0000 0.0000
# 20 texture coords

g chest
usemtl Material__25
f 9/13/7 10/14/7 11/15/7 
f 11/15/7 12/16/7 9/13/7 
f 13/17/8 14/18/8 15/19/8 
f 15/19/8 16/20/8 13/17/8 
f 9/21/9 12/22/9 14/23/9 
f 14/23/9 13/24/9 9/21/9 
f 12/25/10 11/26/10 15/27/10 
f 15/27/10 14/28/10 12/25/10 
f 11/29/11 10/30/11 16/31/11 
f 16/31/11 15/32/11 11/29/11 
f 10/25/12 9/26/12 13/27/12 
f 13/27/12 16/28/12 10/25/12 
# 12 faces

#
# object waist
#

v  -0.1094 -0.1250 0.0781
v  -0.1094 -0.1250 -0.0781
v  0.1094 -0.1250 -0.0781
v  0.1094 -0.1250 0.0781
v  -0.1094 0.0000 0.0781
v  0.1094 0.0000 0.0781
v  0.1094 0.0000 -0.0781
v  -0.1094 0.0000 -0.0781
# 8 vertices

vn -0.0000 -1.0000 -0.0000
vn 0.0000 -1.0000 -0.0000
vn 0.0000 0.0000 1.0000
vn 1.0000 0.0000 -0.0000
vn -0.0000 0.0000 -1.0000
vn 0.0000 0.0000 -1.0000
vn -1.0000 0.0000 -0.0000
# 7 vertex normals

vt 0.4531 0.7813 0.0000
vt 0.4531 0.8594 0.0000
vt 0.3438 0.8594 0.0000
vt 0.3438 0.7813 0.0000
vt 0.3438 0.7656 0.0000
vt 0.3438 0.7031 0.0000
vt 0.4531 0.7031 0.0000
vt 0.4531 0.7656 0.0000
vt 0.5000 0.7188 0.0000
vt 0.5000 0.6563 0.0000
vt 0.5781 0.6563 0.0000
vt 0.5781 0.7188 0.0000
vt 0.5000 0.6250 0.0000
vt 0.5000 0.5625 0.0000
vt 0.6094 0.5625 0.0000
vt 0.6094 0.6250 0.0000
# 16 texture coords

g waist
usemtl Material__25
f 17/33/13 18/34/14 19/35/13 
f 19/35/13 20/36/13 17/33/13 
f 21/37/15 17/38/15 20/39/15 
f 20/39/15 22/40/15 21/37/15 
f 22/41/16 20/42/16 19/43/16 
f 19/43/16 23/44/16 22/41/16 
f 23/45/17 19/46/18 18/47/17 
f 18/47/17 24/48/17 23/45/17 
f 24/41/19 18/42/19 17/43/19 
f 17/43/19 21/44/19 24/41/19 
# 10 faces

#
# object flag
#

v  0.0625 0.0000 -0.1000
v  0.0625 -0.1250 -0.1000
v  -0.0625 0.0000 -0.1000
v  -0.0625 -0.1250 -0.1000
# 4 vertices

vn 0.0000 -0.0000 -1.0000
# 1 vertex normals

vt 0.5625 0.5469 0.0000
vt 0.5625 0.4219 0.0000
vt 0.6875 0.5469 0.0000
vt 0.6875 0.4219 0.0000
# 4 texture coords

g flag
usemtl Material__25
f 25/49/20 26/50/20 27/51/20 
f 28/52/20 27/51/20 26/50/20 
# 2 faces

