# 3ds Max Wavefront OBJ Exporter v0.97b - (c)2007 guruware
# File Created: 13.12.2017 12:04:12

mtllib golembuilder.mtl

#
# object table
#

v  -0.2500 1.0000 0.3750
v  -0.3750 1.0000 0.3750
v  -0.5000 1.0000 0.5000
v  -0.2500 2.0000 0.3750
v  -0.2500 2.0000 0.2500
v  -0.3750 2.0000 0.2500
v  -0.3750 2.0000 0.3750
v  -0.3750 1.0000 0.2500
v  -0.1250 1.0000 0.3750
v  -0.2500 1.0000 0.2500
v  -0.1250 1.0000 0.5000
v  0.2500 1.0000 0.3750
v  0.1250 1.0000 0.3750
v  0.1250 1.0000 0.5000
v  0.2500 1.0000 0.2500
v  0.3750 2.0000 0.2500
v  0.2500 2.0000 0.2500
v  0.2500 2.0000 0.3750
v  0.3750 2.0000 0.3750
v  0.3750 1.0000 0.3750
v  -0.3750 1.0000 0.1250
v  -0.5000 1.0000 0.1250
v  -0.2500 1.0000 -0.2500
v  -0.3750 1.0000 -0.1250
v  -0.3750 1.0000 -0.2500
v  -0.5000 1.0000 -0.1250
v  -0.2500 0.8750 -0.2500
v  -0.2500 0.8750 0.2500
v  0.2500 0.8750 0.2500
v  0.2500 0.8750 -0.2500
v  0.2500 1.0000 -0.2500
v  0.3750 1.0000 0.2500
v  0.3750 1.0000 -0.2500
v  -0.3750 2.0000 -0.2500
v  -0.2500 2.0000 -0.2500
v  -0.2500 2.0000 -0.3750
v  -0.3750 2.0000 -0.3750
v  -0.5000 1.0000 -0.5000
v  -0.3750 1.0000 -0.3750
v  -0.2500 1.0000 -0.3750
v  -0.1250 1.0000 -0.5000
v  -0.1250 1.0000 -0.3750
v  0.2500 1.0000 -0.3750
v  0.1250 1.0000 -0.3750
v  0.1250 1.0000 -0.5000
v  1.5000 1.0000 -0.5000
v  0.3750 1.0000 -0.3750
v  0.2500 2.0000 -0.3750
v  0.2500 2.0000 -0.2500
v  0.3750 2.0000 -0.2500
v  0.3750 2.0000 -0.3750
v  -0.5000 0.7500 0.5000
v  -0.1250 0.7500 0.5000
v  -0.1250 0.7500 0.3750
v  0.1250 0.7500 0.3750
v  0.5000 0.7500 0.5000
v  0.1250 0.7500 0.5000
v  1.5000 1.0000 0.5000
v  1.5000 0.7500 0.2500
v  1.5000 0.7500 0.5000
v  1.5000 0.7500 -0.2500
v  1.5000 0.7500 -0.5000
v  0.1250 0.7500 -0.5000
v  0.5000 0.7500 -0.5000
v  -0.1250 0.7500 -0.5000
v  0.1250 0.7500 -0.3750
v  -0.1250 0.7500 -0.3750
v  -0.5000 0.7500 -0.5000
v  -0.5000 0.7500 -0.1250
v  -0.5000 0.7500 0.1250
v  -0.3750 0.7500 -0.1250
v  -0.3750 0.7500 0.1250
v  1.2500 0.7500 -0.2500
v  1.2500 0.7500 0.2500
v  1.5000 0.0000 -0.5000
v  1.5000 0.0000 0.5000
v  1.2500 0.0000 -0.5000
v  1.5000 0.2500 -0.2500
v  1.5000 0.2500 0.2500
v  1.2500 0.2500 -0.2500
v  1.2500 0.2500 0.2500
v  1.2500 0.2500 0.5000
v  1.2500 0.0000 0.5000
v  1.5000 0.2500 0.5000
v  1.5000 0.2500 -0.5000
v  1.2500 0.2500 -0.5000
v  -0.5000 0.0000 0.5000
v  -0.5000 0.0000 -0.5000
v  0.5000 0.0000 -0.5000
v  0.5000 0.0000 0.5000
# 90 vertices

vn 0.0000 1.0000 -0.0000
vn 0.0000 0.0000 1.0000
vn 1.0000 0.0000 -0.0000
vn 0.0000 0.0000 -1.0000
vn -1.0000 0.0000 -0.0000
vn 0.0000 -1.0000 -0.0000
# 6 vertex normals

vt 0.5625 0.7188 0.0000
vt 0.5313 0.7188 0.0000
vt 0.5000 0.7500 0.0000
vt 0.0938 0.7500 0.0000
vt 0.0938 0.7188 0.0000
vt 0.0625 0.7188 0.0000
vt 0.0625 0.7500 0.0000
vt 0.5313 0.6875 0.0000
vt 0.5938 0.7188 0.0000
vt 0.5625 0.6875 0.0000
vt 0.5938 0.7500 0.0000
vt 0.6875 0.7188 0.0000
vt 0.6563 0.7188 0.0000
vt 0.6563 0.7500 0.0000
vt 0.6875 0.6875 0.0000
vt 0.0313 0.7188 0.0000
vt 0.0313 0.7500 0.0000
vt 0.7188 0.7188 0.0000
vt 0.5313 0.6563 0.0000
vt 0.5000 0.6563 0.0000
vt 0.5625 0.5625 0.0000
vt 0.5313 0.5938 0.0000
vt 0.5313 0.5625 0.0000
vt 0.5000 0.5938 0.0000
vt 0.6875 0.5625 0.0000
vt 0.7188 0.6875 0.0000
vt 0.7188 0.5625 0.0000
vt 0.1250 0.7500 0.0000
vt 0.1250 0.7188 0.0000
vt 0.5000 0.5000 0.0000
vt 0.5313 0.5313 0.0000
vt 0.5625 0.5313 0.0000
vt 0.5938 0.5000 0.0000
vt 0.5938 0.5313 0.0000
vt 0.6875 0.5313 0.0000
vt 0.6563 0.5313 0.0000
vt 0.6563 0.5000 0.0000
vt 1.0000 0.5000 0.0000
vt 0.7188 0.5313 0.0000
vt -0.0000 0.7188 0.0000
vt -0.0000 0.7500 0.0000
vt 0.6563 1.0000 0.0000
vt 0.7500 1.0000 0.0000
vt 0.7500 0.9375 0.0000
vt 0.6563 0.9375 0.0000
vt 0.5938 1.0000 0.0000
vt 0.5938 0.9375 0.0000
vt 0.5000 0.9375 0.0000
vt 0.2500 0.7500 0.0000
vt 0.3125 0.6875 0.0000
vt 0.2500 0.6875 0.0000
vt 0.4375 0.6875 0.0000
vt 0.5000 0.6875 0.0000
vt 0.5000 1.0000 0.0000
vt 1.0000 0.7500 0.0000
vt 0.2500 1.0000 0.0000
vt 0.9219 0.6719 0.0000
vt 0.9219 0.5625 0.0000
vt 0.7500 0.5000 0.0000
vt 0.7500 0.7500 0.0000
vt 1.0000 0.5625 0.0000
vt 0.2500 0.9375 0.0000
vt 0.2500 0.5000 0.0000
vt 0.5000 0.5625 0.0000
vt 1.0000 0.6719 0.0000
vt 0.4375 0.5625 0.0000
vt 0.3125 0.5625 0.0000
vt 0.1875 0.6875 0.0000
vt 0.2500 0.5625 0.0000
vt 0.1875 0.5625 0.0000
vt 0.1875 0.5000 0.0000
vt 0.9219 0.7500 0.0000
vt 0.9219 0.5000 0.0000
vt 0.3125 0.9063 0.0000
vt 0.4375 0.9063 0.0000
vt 0.4375 0.9375 0.0000
vt 0.3125 0.9375 0.0000
vt 0.0000 0.5000 0.0000
vt 0.0313 0.5000 0.0000
vt 0.0000 0.7500 0.0000
vt 0.0625 0.5000 0.0000
vt 0.1250 0.5000 0.0000
vt 0.0938 0.5000 0.0000
vt 0.4844 0.5938 0.0000
vt 0.4844 0.6563 0.0000
vt 0.4531 0.6563 0.0000
vt 0.4531 0.5938 0.0000
vt 0.0000 1.0000 0.0000
vt 1.0000 0.9375 0.0000
# 89 texture coords

g table
usemtl texture
f 1/1/1 2/2/1 3/3/1 
f 4/4/1 5/5/1 6/6/1 
f 6/6/1 7/7/1 4/4/1 
f 3/3/1 2/2/1 8/8/1 
f 1/1/1 9/9/1 10/10/1 
f 1/1/1 3/3/1 11/11/1 
f 11/11/1 9/9/1 1/1/1 
f 12/12/1 13/13/1 14/14/1 
f 15/15/1 13/13/1 12/12/1 
f 15/15/1 10/10/1 9/9/1 
f 9/9/1 13/13/1 15/15/1 
f 16/6/1 17/16/1 18/17/1 
f 18/17/1 19/7/1 16/6/1 
f 14/14/1 20/18/1 12/12/1 
f 10/10/1 21/19/1 8/8/1 
f 22/20/1 3/3/1 8/8/1 
f 8/8/1 21/19/1 22/20/1 
f 21/19/1 10/10/1 23/21/1 
f 23/21/1 24/22/1 21/19/1 
f 25/23/1 24/22/1 23/21/1 
f 26/24/1 24/22/1 25/23/1 
f 27/21/1 28/10/1 29/15/1 
f 29/15/1 30/25/1 27/21/1 
f 31/25/1 32/26/1 33/27/1 
f 31/25/1 15/15/1 32/26/1 
f 34/4/1 35/28/1 36/29/1 
f 36/29/1 37/5/1 34/4/1 
f 38/30/1 39/31/1 40/32/1 
f 38/30/1 26/24/1 25/23/1 
f 25/23/1 39/31/1 38/30/1 
f 41/33/1 38/30/1 40/32/1 
f 40/32/1 42/34/1 41/33/1 
f 23/21/1 42/34/1 40/32/1 
f 43/35/1 44/36/1 31/25/1 
f 45/37/1 44/36/1 43/35/1 
f 42/34/1 23/21/1 31/25/1 
f 31/25/1 44/36/1 42/34/1 
f 33/27/1 32/26/1 46/38/1 
f 46/38/1 47/39/1 33/27/1 
f 45/37/1 47/39/1 46/38/1 
f 43/35/1 47/39/1 45/37/1 
f 48/40/1 49/41/1 50/17/1 
f 50/17/1 51/16/1 48/40/1 
f 11/42/2 3/43/2 52/44/2 
f 53/45/2 11/42/2 52/44/2 
f 13/42/2 9/46/2 54/47/2 
f 55/45/2 13/42/2 54/47/2 
f 56/48/2 14/46/2 57/47/2 
f 58/49/3 59/50/3 46/3/3 
f 58/49/3 60/51/3 59/50/3 
f 61/52/3 62/53/3 46/3/3 
f 63/47/4 45/46/4 64/48/4 
f 65/45/4 38/43/4 41/42/4 
f 42/42/4 44/46/4 66/47/4 
f 67/45/4 42/42/4 66/47/4 
f 65/45/4 68/44/4 38/43/4 
f 38/54/5 68/48/5 69/47/5 
f 69/47/5 26/46/5 38/54/5 
f 70/45/5 3/43/5 22/42/5 
f 21/42/5 24/46/5 71/47/5 
f 72/45/5 21/42/5 71/47/5 
f 70/45/5 52/44/5 3/43/5 
f 20/18/1 14/14/1 58/55/1 
f 46/38/1 32/26/1 20/18/1 
f 14/46/2 56/48/2 58/56/2 
f 73/57/6 74/58/6 56/59/6 
f 64/60/6 73/57/6 56/59/6 
f 45/46/4 46/56/4 64/48/4 
f 60/38/6 74/58/6 59/61/6 
f 56/59/6 74/58/6 60/38/6 
f 56/48/2 60/62/2 58/56/2 
f 75/30/6 76/63/6 77/64/6 
f 61/65/6 64/60/6 62/55/6 
f 61/65/6 73/57/6 64/60/6 
f 64/48/4 46/56/4 62/62/4 
f 46/38/1 20/18/1 58/55/1 
f 61/52/3 46/3/3 59/50/3 
f 78/66/3 59/50/3 79/67/3 
f 61/52/3 59/50/3 78/66/3 
f 74/52/5 73/50/5 80/67/5 
f 59/68/2 81/69/2 79/70/2 
f 74/51/2 81/69/2 59/68/2 
f 73/51/4 78/70/4 80/69/4 
f 61/68/4 78/70/4 73/51/4 
f 80/67/5 81/66/5 74/52/5 
f 76/71/2 82/69/2 83/63/2 
f 76/71/2 84/70/2 82/69/2 
f 77/63/5 83/30/5 80/67/5 
f 77/63/4 85/70/4 75/71/4 
f 77/63/4 86/69/4 85/70/4 
f 76/63/3 78/66/3 79/67/3 
f 77/64/6 76/63/6 83/69/6 
f 84/55/1 81/57/1 82/72/1 
f 79/65/1 81/57/1 84/55/1 
f 86/73/1 78/61/1 85/38/1 
f 80/58/1 78/61/1 86/73/1 
f 81/66/5 83/30/5 82/64/5 
f 80/67/5 83/30/5 81/66/5 
f 79/67/3 84/69/3 76/63/3 
f 80/67/5 86/69/5 77/63/5 
f 78/66/3 75/30/3 85/64/3 
f 76/63/3 75/30/3 78/66/3 
f 29/74/4 28/75/4 10/76/4 
f 10/76/4 15/77/4 29/74/4 
f 10/77/3 28/74/3 27/75/3 
f 23/76/3 10/77/3 27/75/3 
f 30/74/5 29/75/5 15/76/5 
f 15/76/5 31/77/5 30/74/5 
f 23/76/2 27/75/2 30/74/2 
f 31/77/2 23/76/2 30/74/2 
f 10/78/4 8/79/4 6/17/4 
f 6/17/4 5/80/4 10/78/4 
f 8/79/5 2/81/5 7/7/5 
f 7/7/5 6/17/5 8/79/5 
f 2/82/2 1/83/2 4/4/2 
f 4/4/2 7/28/2 2/82/2 
f 1/81/3 10/83/3 5/4/3 
f 5/4/3 4/7/3 1/81/3 
f 15/81/5 12/83/5 18/4/5 
f 18/4/5 17/7/5 15/81/5 
f 12/79/2 20/78/2 19/80/2 
f 19/80/2 18/17/2 12/79/2 
f 20/79/3 32/81/3 16/7/3 
f 16/7/3 19/17/3 20/79/3 
f 32/83/4 15/82/4 17/28/4 
f 17/28/4 16/4/4 32/83/4 
f 25/82/2 23/83/2 35/4/2 
f 35/4/2 34/28/2 25/82/2 
f 23/78/3 40/79/3 36/17/3 
f 36/17/3 35/80/3 23/78/3 
f 40/81/4 39/83/4 37/4/4 
f 37/4/4 36/7/4 40/81/4 
f 39/79/5 25/81/5 34/7/5 
f 34/7/5 37/17/5 39/79/5 
f 43/79/5 31/81/5 49/7/5 
f 49/7/5 48/17/5 43/79/5 
f 31/83/2 33/81/2 50/7/2 
f 50/7/2 49/4/2 31/83/2 
f 33/83/3 47/82/3 51/28/3 
f 51/28/3 50/4/3 33/83/3 
f 47/78/4 43/79/4 48/17/4 
f 48/17/4 51/80/4 47/78/4 
f 54/84/3 9/85/3 11/86/3 
f 11/86/3 53/87/3 54/84/3 
f 13/85/5 55/84/5 57/87/5 
f 57/87/5 14/86/5 13/85/5 
f 66/84/5 44/85/5 45/86/5 
f 45/86/5 63/87/5 66/84/5 
f 42/85/3 67/84/3 65/87/3 
f 65/87/3 41/86/3 42/85/3 
f 71/84/2 24/85/2 26/86/2 
f 26/86/2 69/87/2 71/84/2 
f 21/85/4 72/84/4 70/87/4 
f 70/87/4 22/86/4 21/85/4 
f 87/56/6 88/49/6 89/80/6 
f 89/80/6 90/88/6 87/56/6 
f 52/3/1 56/60/1 64/59/1 
f 64/59/1 68/30/1 52/3/1 
f 87/60/2 90/55/2 56/89/2 
f 56/89/2 52/44/2 87/60/2 
f 90/49/3 89/3/3 64/48/3 
f 64/48/3 56/62/3 90/49/3 
f 89/3/4 88/60/4 68/44/4 
f 68/44/4 64/48/4 89/3/4 
f 88/3/5 87/60/5 52/44/5 
f 52/44/5 68/48/5 88/3/5 
# 166 faces

#
# object press
#

v  0.1250 1.3750 0.3750
v  0.1250 1.3750 0.5000
v  -0.1250 1.3750 0.5000
v  -0.1250 1.3750 0.3750
v  -0.3750 1.3750 -0.1250
v  -0.3750 1.3750 0.1250
v  -0.5000 1.3750 0.1250
v  -0.5000 1.3750 -0.1250
v  -0.5000 1.6250 -0.1250
v  -0.5000 1.6250 -0.5000
v  -0.1250 1.6250 -0.5000
v  -0.1250 1.6250 -0.3750
v  0.1250 1.6250 -0.3750
v  0.1250 1.6250 -0.5000
v  0.5000 1.6250 -0.5000
v  0.5000 1.6250 0.5000
v  0.1250 1.6250 0.5000
v  0.1250 1.6250 0.3750
v  -0.1250 1.6250 0.3750
v  -0.1250 1.6250 0.5000
v  -0.5000 1.6250 0.5000
v  -0.5000 1.6250 0.1250
v  -0.3750 1.6250 0.1250
v  -0.3750 1.6250 -0.1250
v  0.1250 1.3750 -0.5000
v  0.1250 1.3750 -0.3750
v  -0.1250 1.3750 -0.3750
v  -0.1250 1.3750 -0.5000
v  -0.1250 2.0000 0.1250
v  0.1250 2.0000 0.1250
v  0.1250 2.0000 -0.1250
v  -0.1250 2.0000 -0.1250
v  0.1250 1.8750 -0.1250
v  0.5000 1.8750 -0.5000
v  -0.5000 1.8750 -0.5000
v  -0.1250 1.8750 -0.1250
v  -0.5000 1.8750 0.5000
v  -0.1250 1.8750 0.1250
v  0.1250 1.8750 0.1250
v  0.5000 1.8750 0.5000
# 40 vertices

vn 0.0000 -1.0000 -0.0000
vn 0.0000 1.0000 -0.0000
vn 0.0000 0.0000 1.0000
vn 0.0000 0.0000 -1.0000
vn 0.7071 0.0000 -0.7071
vn 1.0000 0.0000 -0.0000
vn -1.0000 0.0000 -0.0000
# 7 vertex normals

vt 0.1875 0.5625 0.0000
vt 0.2500 0.5625 0.0000
vt 0.2500 0.6875 0.0000
vt 0.1875 0.6875 0.0000
vt 0.7500 0.3594 0.0000
vt 0.7500 0.2500 0.0000
vt 0.8438 0.2500 0.0000
vt 0.8438 0.2813 0.0000
vt 0.9063 0.2813 0.0000
vt 0.9063 0.2500 0.0000
vt 1.0000 0.2500 0.0000
vt 1.0000 0.5000 0.0000
vt 0.9063 0.5000 0.0000
vt 0.9063 0.4688 0.0000
vt 0.8438 0.4688 0.0000
vt 0.8438 0.5000 0.0000
vt 0.7500 0.5000 0.0000
vt 0.7500 0.4063 0.0000
vt 0.7969 0.4063 0.0000
vt 0.7969 0.3594 0.0000
vt 0.4219 0.8906 0.0000
vt 0.5313 0.8906 0.0000
vt 0.5313 1.0000 0.0000
vt 0.4219 1.0000 0.0000
vt 0.9063 0.4063 0.0000
vt 0.8438 0.4063 0.0000
vt 0.8438 0.3438 0.0000
vt 0.9063 0.3438 0.0000
vt 0.6563 0.4375 0.0000
vt 0.7500 0.4375 0.0000
vt 0.5000 0.5000 0.0000
vt 0.5000 0.4375 0.0000
vt 0.5938 0.4375 0.0000
vt 0.5938 0.3750 0.0000
vt 0.6563 0.3750 0.0000
vt 0.2500 0.5000 0.0000
vt 0.2500 0.4375 0.0000
vt 0.9063 0.8906 0.0000
vt 1.0000 0.8906 0.0000
vt 1.0000 1.0000 0.0000
vt 0.9063 1.0000 0.0000
# 41 texture coords

g press
usemtl texture
f 91/90/7 92/91/7 93/92/7 
f 93/92/7 94/93/7 91/90/7 
f 95/91/7 96/92/7 97/93/7 
f 97/93/7 98/90/7 95/91/7 
f 99/94/7 100/95/7 101/96/7 
f 99/94/7 101/96/7 102/97/7 
f 99/94/7 102/97/7 103/98/7 
f 103/98/7 104/99/7 105/100/7 
f 99/94/7 103/98/7 105/100/7 
f 106/101/7 107/102/7 108/103/7 
f 105/100/7 106/101/7 108/103/7 
f 105/100/7 108/103/7 109/104/7 
f 109/104/7 110/105/7 111/106/7 
f 111/106/7 112/107/7 113/108/7 
f 109/104/7 111/106/7 113/108/7 
f 105/100/7 109/104/7 113/108/7 
f 105/100/7 113/108/7 114/109/7 
f 99/94/7 105/100/7 114/109/7 
f 115/90/7 116/91/7 117/92/7 
f 117/92/7 118/93/7 115/90/7 
f 119/110/8 120/111/8 121/112/8 
f 121/112/8 122/113/8 119/110/8 
f 123/114/8 124/101/8 125/106/8 
f 126/115/8 123/114/8 125/106/8 
f 126/115/8 125/106/8 127/95/8 
f 128/116/8 126/115/8 127/95/8 
f 129/117/8 128/116/8 127/95/8 
f 129/117/8 127/95/8 130/100/8 
f 129/117/8 130/100/8 124/101/8 
f 123/114/8 129/117/8 124/101/8 
f 107/118/9 106/119/9 130/106/9 
f 107/118/9 130/106/9 127/120/9 
f 127/120/9 111/121/9 110/122/9 
f 107/118/9 127/120/9 110/122/9 
f 107/118/9 110/122/9 93/123/9 
f 107/118/9 93/123/9 92/124/9 
f 104/122/10 115/123/10 118/124/10 
f 104/122/10 118/124/10 101/118/10 
f 101/118/10 100/119/10 125/106/10 
f 104/122/10 101/118/10 125/106/10 
f 104/122/10 125/106/10 124/120/11 
f 105/121/11 104/122/10 124/120/11 
f 105/121/11 124/120/11 130/125/12 
f 106/126/12 105/121/11 130/125/12 
f 99/122/13 98/123/13 97/124/13 
f 99/122/13 97/124/13 112/118/13 
f 112/118/13 111/119/13 127/106/13 
f 99/122/13 112/118/13 127/106/13 
f 100/121/13 99/122/13 127/106/13 
f 100/121/13 127/106/13 125/120/13 
f 94/92/13 93/93/13 110/90/13 
f 110/90/13 109/91/13 94/92/13 
f 91/127/10 94/128/10 109/129/10 
f 109/129/10 108/130/10 91/127/10 
f 92/90/12 91/91/12 108/92/12 
f 108/92/12 107/93/12 92/90/12 
f 97/92/9 96/93/9 113/90/9 
f 113/90/9 112/91/9 97/92/9 
f 95/92/10 98/93/10 99/90/10 
f 99/90/10 114/91/10 95/92/10 
f 96/127/12 95/128/12 114/129/12 
f 114/129/12 113/130/12 96/127/12 
f 118/92/13 117/93/13 102/90/13 
f 102/90/13 101/91/13 118/92/13 
f 116/92/12 115/93/12 104/90/12 
f 104/90/12 103/91/12 116/92/12 
f 117/127/9 116/128/9 103/129/9 
f 103/129/9 102/130/9 117/127/9 
f 120/91/9 119/92/9 128/93/9 
f 128/93/9 129/90/9 120/91/9 
f 121/91/12 120/92/12 129/93/12 
f 129/93/12 123/90/12 121/91/12 
f 126/90/10 122/91/10 121/92/10 
f 121/92/10 123/93/10 126/90/10 
f 119/91/13 122/92/13 126/93/13 
f 126/93/13 128/90/13 119/91/13 
# 76 faces

#
# object anvil
#

v  0.5044 0.6250 0.9447
v  0.8160 0.6250 0.5537
v  1.5981 0.6250 1.1769
v  1.2865 0.6250 1.5679
v  0.5044 1.0000 0.9447
v  1.2865 1.0000 1.5679
v  1.5981 1.0000 1.1769
v  0.8160 1.0000 0.5537
v  0.7778 0.3125 1.0027
v  0.9336 0.3125 0.8072
v  1.3247 0.3125 1.1189
v  1.1689 0.3125 1.3143
v  0.7778 0.6250 1.0027
v  1.1689 0.6250 1.3143
v  1.3247 0.6250 1.1189
v  0.9336 0.6250 0.8072
v  0.6900 0.2500 1.0126
v  0.9237 0.2500 0.7194
v  1.4124 0.2500 1.1089
v  1.1788 0.2500 1.4021
v  0.6900 0.3125 1.0126
v  1.1788 0.3125 1.4021
v  1.4124 0.3125 1.1089
v  0.9237 0.3125 0.7194
v  0.5243 0.0000 1.1204
v  0.9917 0.0000 0.5338
v  1.5782 0.0000 1.0012
v  1.1108 0.0000 1.5877
v  0.5243 0.2500 1.1204
v  1.1108 0.2500 1.5877
v  1.5782 0.2500 1.0012
v  0.9917 0.2500 0.5338
# 32 vertices

vn 0.0000 -1.0000 -0.0000
vn 0.0000 1.0000 -0.0000
vn -0.2112 0.0000 0.9774
vn 0.9774 0.0000 0.2112
vn 0.2112 0.0000 -0.9774
vn -0.9774 0.0000 -0.2112
# 6 vertex normals

vt 0.2969 0.0000 0.0000
vt 0.4531 0.0000 0.0000
vt 0.4531 0.2500 0.0000
vt 0.2969 0.2500 0.0000
vt 0.2500 0.2500 0.0000
vt 0.0000 0.2500 0.0000
vt 0.0000 0.1406 0.0000
vt 0.2500 0.1406 0.0000
vt 0.2031 0.2500 0.0000
vt 0.0469 0.2500 0.0000
vt 0.0469 0.1406 0.0000
vt 0.2031 0.1406 0.0000
vt 0.2500 0.2344 0.0000
vt 0.0000 0.2344 0.0000
vt 0.4531 0.1719 0.0000
vt 0.2969 0.1719 0.0000
vt 0.2188 0.1875 0.0000
vt 0.0313 0.1875 0.0000
vt 0.0313 0.0625 0.0000
vt 0.2188 0.0625 0.0000
vt 0.0781 0.1875 0.0000
vt 0.0781 0.0625 0.0000
vt 0.1719 0.0625 0.0000
vt 0.1719 0.1875 0.0000
vt 0.0313 0.0781 0.0000
vt 0.2188 0.0781 0.0000
vt 0.1875 0.1250 0.0000
vt 0.0625 0.1250 0.0000
vt 0.0625 0.1094 0.0000
vt 0.1875 0.1094 0.0000
vt 0.0313 0.2188 0.0000
vt 0.0313 0.0313 0.0000
vt 0.2188 0.0313 0.0000
vt 0.2188 0.2188 0.0000
vt 0.0313 0.0000 0.0000
vt 0.2188 0.0000 0.0000
vt 0.0313 -0.0000 0.0000
vt 0.2188 -0.0000 0.0000
# 38 texture coords

g anvil
usemtl texture
f 131/131/14 132/132/14 133/133/14 
f 133/133/14 134/134/14 131/131/14 
f 135/132/15 136/133/15 137/134/15 
f 137/134/15 138/131/15 135/132/15 
f 131/135/16 134/136/16 136/137/16 
f 136/137/16 135/138/16 131/135/16 
f 134/139/17 133/140/17 137/141/17 
f 137/141/17 136/142/17 134/139/17 
f 133/143/18 132/144/18 138/137/18 
f 138/137/18 137/138/18 133/143/18 
f 132/139/19 131/140/19 135/141/19 
f 135/141/19 138/142/19 132/139/19 
f 139/145/14 140/133/14 141/134/14 
f 141/134/14 142/146/14 139/145/14 
f 143/133/15 144/134/15 145/146/15 
f 145/146/15 146/145/15 143/133/15 
f 139/147/16 142/148/16 144/149/16 
f 144/149/16 143/150/16 139/147/16 
f 142/151/17 141/152/17 145/153/17 
f 145/153/17 144/154/17 142/151/17 
f 141/147/18 140/148/18 146/155/18 
f 146/155/18 145/156/18 141/147/18 
f 140/151/19 139/152/19 143/153/19 
f 143/153/19 146/154/19 140/151/19 
f 147/150/14 148/147/14 149/148/14 
f 149/148/14 150/149/14 147/150/14 
f 151/147/15 152/148/15 153/149/15 
f 153/149/15 154/150/15 151/147/15 
f 147/156/16 150/155/16 152/149/16 
f 152/149/16 151/150/16 147/156/16 
f 150/157/17 149/158/17 153/159/17 
f 153/159/17 152/160/17 150/157/17 
f 149/156/18 148/155/18 154/149/18 
f 154/149/18 153/150/18 149/156/18 
f 148/157/19 147/158/19 151/159/19 
f 151/159/19 154/160/19 148/157/19 
f 155/161/14 156/162/14 157/163/14 
f 157/163/14 158/164/14 155/161/14 
f 159/162/15 160/163/15 161/164/15 
f 161/164/15 162/161/15 159/162/15 
f 155/156/16 158/155/16 160/165/16 
f 160/165/16 159/166/16 155/156/16 
f 158/156/17 157/155/17 161/165/17 
f 161/165/17 160/166/17 158/156/17 
f 157/156/18 156/155/18 162/165/18 
f 162/165/18 161/166/18 157/156/18 
f 156/156/19 155/155/19 159/167/19 
f 159/167/19 162/168/19 156/156/19 
# 48 faces

#
# object box
#

v  -0.4375 0.0000 1.4375
v  -0.4375 0.0000 0.5625
v  0.4375 0.0000 0.5625
v  0.4375 0.0000 1.4375
v  0.4375 0.8750 1.4375
v  -0.4375 0.8750 1.4375
v  0.4375 0.8750 0.5625
v  -0.4375 0.8750 0.5625
v  0.3125 0.8750 1.3125
v  -0.3125 0.8750 1.3125
v  0.3125 0.8750 0.6875
v  -0.3125 0.8750 0.6875
v  0.3125 0.6250 1.3125
v  -0.3125 0.6250 1.3125
v  0.3125 0.6250 0.6875
v  -0.3125 0.6250 0.6875
# 16 vertices

vn 0.0000 -1.0000 -0.0000
vn 0.0000 0.0000 1.0000
vn 1.0000 0.0000 -0.0000
vn 0.0000 0.0000 -1.0000
vn -1.0000 0.0000 -0.0000
vn 0.0000 1.0000 -0.0000
# 6 vertex normals

vt 0.7500 0.2500 0.0000
vt 0.7500 0.0000 0.0000
vt 1.0000 0.0000 0.0000
vt 1.0000 0.2500 0.0000
vt 0.5000 0.0000 0.0000
vt 0.5000 0.2500 0.0000
vt 0.9688 0.0313 0.0000
vt 0.7813 0.0313 0.0000
vt 0.9688 0.2188 0.0000
vt 0.7813 0.2188 0.0000
vt 0.7188 0.3281 0.0000
vt 0.5313 0.3281 0.0000
vt 0.5313 0.2500 0.0000
vt 0.7188 0.2500 0.0000
# 14 texture coords

g box
usemtl texture
f 163/169/20 164/170/20 165/171/20 
f 165/171/20 166/172/20 163/169/20 
f 163/173/21 166/170/21 167/169/21 
f 167/169/21 168/174/21 163/173/21 
f 166/173/22 165/170/22 169/169/22 
f 169/169/22 167/174/22 166/173/22 
f 165/173/23 164/170/23 170/169/23 
f 170/169/23 169/174/23 165/173/23 
f 164/173/24 163/170/24 168/169/24 
f 168/169/24 170/174/24 164/173/24 
f 168/170/25 167/171/25 171/175/25 
f 171/175/25 172/176/25 168/170/25 
f 167/171/25 169/172/25 173/177/25 
f 173/177/25 171/175/25 167/171/25 
f 169/172/25 170/169/25 174/178/25 
f 174/178/25 173/177/25 169/172/25 
f 170/169/25 168/170/25 172/176/25 
f 172/176/25 174/178/25 170/169/25 
f 172/179/23 171/180/23 175/181/23 
f 175/181/23 176/182/23 172/179/23 
f 171/179/24 173/180/24 177/181/24 
f 177/181/24 175/182/24 171/179/24 
f 173/179/21 174/180/21 178/181/21 
f 178/181/21 177/182/21 173/179/21 
f 174/179/22 172/180/22 176/181/22 
f 176/181/22 178/182/22 174/179/22 
# 26 faces

